<?xml version="1.0" encoding="UTF-8"?>
<!DOCTYPE svg PUBLIC "-//W3C//DTD SVG 1.1//EN" "111">
<svg xmlns="http://www.w3.org/2000/svg" xml:space="preserve" width="73.4238mm" height="43.5187mm" version="1.1"
     style="shape-rendering:geometricPrecision; text-rendering:geometricPrecision; image-rendering:optimizeQuality; fill-rule:evenodd; clip-rule:evenodd"
     viewBox="0 0 7342.08 4351.69"
     xmlns:xlink="111"
     xmlns:xodm="111">
 <defs>
  <style type="text/css">
   <![CDATA[
    .str3 {stroke:red;stroke-width:16;stroke-linejoin:bevel;stroke-miterlimit:22.9256}
    .str2 {stroke:black;stroke-width:8;stroke-linejoin:bevel;stroke-miterlimit:22.9256}
    .str0 {stroke:#7F66CC;stroke-width:8;stroke-linejoin:bevel;stroke-miterlimit:22.9256}
    .str1 {stroke:#ADADAD;stroke-width:8;stroke-linejoin:bevel;stroke-miterlimit:22.9256;stroke-dasharray:50 50}
    .fil0 {fill:none}
   ]]>
  </style>
 </defs>
    <g id="dim-angle">
  <line class="fil0 str0" x1="2927.16" y1="2445.87" x2="2130.21" y2="2496.51"/>
        <path class="fil0 str0" d="M2316.1 2021.58c-118.91,136.12 -184.62,302.35 -185.86,470.09"/>
        <line class="fil0 str0" x1="4713.96" y1="2407.45" x2="7263.2" y2="2116.95"/>
        <line class="fil0 str0" x1="6439.17" y1="1494.03" x2="7039.42" y2="1176.22"/>
        <path class="fil0 str0" d="M7263.19 2112.11c-0.73,-329.74 -76.24,-647.14 -221.63,-931.72"/>
        <line class="fil0 str0" x1="3249.96" y1="2120.91" x2="2725.91" y2="1045.21"/>
        <line class="fil0 str0" x1="2962.26" y1="813.54" x2="2798.16" y2="67.84"/>
        <path class="fil0 str0" d="M2797.59 70.83c-46.75,242.9 -71.48,577.44 -71.68,969.55"/>
        <line class="fil0 str0" x1="3249.97" y1="2120.93" x2="3249.96" y2="2120.91"/>
        <line class="fil0 str0" x1="4391.22" y1="2732.4" x2="5168.06" y2="3058.5"/>
        <path class="fil0 str0" d="M5168.05 3053.66c-0.63,-155.5 -31.85,-321.32 -90.95,-483.19"/>
        <line class="fil0 str0" x1="2927.24" y1="1729.04" x2="2726.06" y2="1931.6"/>
        <line class="fil0 str0" x1="2927.24" y1="1729.04" x2="2195.26" y2="1585.78"/>
        <line class="fil0 str0" x1="2927.24" y1="2445.86" x2="2927.24" y2="1729.04"/>
        <line class="fil0 str0" x1="3657.57" y1="2590.79" x2="3387.93" y2="2862.26"/>
        <path class="fil0 str0" d="M3513.86 2226.71c-77.76,187.9 -125.17,425.4 -125.91,630.71"/>
        <line class="fil0 str0" x1="3987.91" y1="2258.2" x2="4413.32" y2="1829.88"/>
        <path class="fil0 str0" d="M4413.31 1825.05c-0.45,-198.55 -28.79,-363.78 -81.09,-472.72"/>
        <line class="fil0 str0" x1="2356.62" y1="1423.3" x2="2210.29" y2="1251.36"/>
        <line class="fil0 str0" x1="3079.01" y1="2281.52" x2="1846.48" y2="2040.29"/>
        <path class="fil0 str0" d="M2206.81 1254.11c-229.61,181.71 -359.02,462.34 -360.32,781.35"/>
        <line class="fil0 str0" x1="4558.1" y1="2571" x2="7090.33" y2="3066.6"/>
        <line class="fil0 str0" x1="5833.53" y1="2103.8" x2="6755.96" y2="1768.15"/>
        <path class="fil0 str0" d="M7090.32 3061.76c-0.85,-429.38 -115.21,-873.44 -331.92,-1288.94"/>
        <line class="fil0 str1" x1="2927.24" y1="2445.86" x2="2726.06" y2="2648.42"/>
        <line class="fil0 str0" x1="2183.84" y1="2444.88" x2="2076.58" y2="2548.15"/>
        <line class="fil0 str0" x1="2050.03" y1="2501.36" x2="2210.39" y2="2491.66"/>
        <line class="fil0 str0" x1="2130.57" y1="2399.72" x2="2129.85" y2="2593.3"/>
        <line class="fil0 str0" x1="2244.22" y1="2028.26" x2="2394.85" y2="2007.06"/>
        <line class="fil0 str0" x1="2380.84" y1="2060.54" x2="2258.23" y2="1974.78"/>
        <line class="fil0 str0" x1="2250.64" y1="2096.03" x2="2388.43" y2="1939.29"/>
        <line class="fil0 str0" x1="7210.85" y1="2074.59" x2="7315.55" y2="2159.32"/>
        <line class="fil0 str0" x1="7341.65" y1="2107.94" x2="7184.75" y2="2125.97"/>
        <line class="fil0 str0" x1="7263.09" y1="2020.2" x2="7263.3" y2="2213.71"/>
        <line class="fil0 str0" x1="7108.54" y1="1192.72" x2="6970.32" y2="1159.71"/>
        <line class="fil0 str0" x1="6967.83" y1="1214.05" x2="7111.02" y2="1138.39"/>
        <line class="fil0 str0" x1="7082.18" y1="1259.67" x2="6996.66" y2="1092.78"/>
        <line class="fil0 str0" x1="2737.33" y1="1020.33" x2="2714.48" y2="1070.09"/>
        <line class="fil0 str0" x1="2708.78" y1="1009.99" x2="2743.03" y2="1080.44"/>
        <line class="fil0 str0" x1="2725.93" y1="948.49" x2="2725.88" y2="1141.93"/>
        <line class="fil0 str0" x1="2782.54" y1="53.05" x2="2813.78" y2="82.64"/>
        <line class="fil0 str0" x1="2812.93" y1="134.86" x2="2783.39" y2="0.82"/>
        <line class="fil0 str0" x1="2786.62" y1="127.62" x2="2809.71" y2="8.06"/>
        <line class="fil0 str0" x1="5128.73" y1="2993.73" x2="5207.39" y2="3123.27"/>
        <line class="fil0 str0" x1="5226.91" y1="3083.01" x2="5109.21" y2="3033.98"/>
        <line class="fil0 str0" x1="5167.86" y1="2961.64" x2="5168.26" y2="3155.35"/>
        <line class="fil0 str0" x1="5128.35" y1="2607.55" x2="5022.14" y2="2523.3"/>
        <line class="fil0 str0" x1="5023.36" y1="2577.87" x2="5127.14" y2="2552.97"/>
        <line class="fil0 str0" x1="5112.27" y1="2666.29" x2="5038.23" y2="2464.56"/>
        <line class="fil0 str0" x1="3508.87" y1="2295.89" x2="3522.55" y2="2148.66"/>
        <line class="fil0 str0" x1="3498.31" y1="2178.35" x2="3533.11" y2="2266.2"/>
        <line class="fil0 str0" x1="3478.83" y1="2310.93" x2="3552.58" y2="2133.62"/>
        <line class="fil0 str0" x1="3366.24" y1="2835.53" x2="3409.63" y2="2889"/>
        <line class="fil0 str0" x1="3420.61" y1="2829.65" x2="3355.26" y2="2894.87"/>
        <line class="fil0 str0" x1="3388.11" y1="2765.32" x2="3387.76" y2="2959.21"/>
        <line class="fil0 str0" x1="4391.48" y1="1803.61" x2="4435.16" y2="1856.15"/>
        <line class="fil0 str0" x1="4445.99" y1="1796.8" x2="4380.64" y2="1862.96"/>
        <line class="fil0 str0" x1="4413.21" y1="1733.22" x2="4413.43" y2="1926.54"/>
        <line class="fil0 str0" x1="4361.37" y1="1329.95" x2="4300.53" y2="1369.43"/>
        <line class="fil0 str0" x1="4304.46" y1="1418.86" x2="4357.44" y2="1280.52"/>
        <line class="fil0 str0" x1="4356.47" y1="1402.43" x2="4305.43" y2="1296.94"/>
        <line class="fil0 str0" x1="2210.43" y1="1319.82" x2="2210.15" y2="1182.91"/>
        <line class="fil0 str0" x1="2157.78" y1="1189.87" x2="2262.8" y2="1312.86"/>
        <line class="fil0 str0" x1="2140.55" y1="1306.28" x2="2280.03" y2="1196.45"/>
        <line class="fil0 str0" x1="1797.18" y1="1982.16" x2="1895.79" y2="2098.42"/>
        <line class="fil0 str0" x1="1920.6" y1="2054.94" x2="1772.37" y2="2025.64"/>
        <line class="fil0 str0" x1="1846.68" y1="1943.56" x2="1846.28" y2="2137.02"/>
        <line class="fil0 str0" x1="7040.87" y1="3008.59" x2="7139.79" y2="3124.62"/>
        <line class="fil0 str0" x1="7164.44" y1="3081.04" x2="7016.21" y2="3052.18"/>
        <line class="fil0 str0" x1="7090.23" y1="2969.82" x2="7090.42" y2="3163.4"/>
        <line class="fil0 str0" x1="6823.35" y1="1799.41" x2="6688.57" y2="1736.89"/>
        <line class="fil0 str0" x1="6691.58" y1="1791.5" x2="6820.34" y2="1744.8"/>
        <line class="fil0 str0" x1="6804.9" y1="1861.79" x2="6707.02" y2="1674.5"/>
 </g>
    <g id="line-dash">
  <line class="fil0 str1" x1="4552.56" y1="2569.92" x2="5833.53" y2="2103.8"/>
        <line class="fil0 str1" x1="3981.95" y1="2264.19" x2="4426.22" y2="1100.06"/>
        <line class="fil0 str1" x1="3088.6" y1="2283.4" x2="2356.62" y2="1423.3"/>
        <line class="fil0 str1" x1="3659.22" y1="2589.12" x2="3458.04" y2="2074.86"/>
        <line class="fil0 str1" x1="5470.98" y1="2468.83" x2="5470.98" y2="3185.66"/>
        <line class="fil0 str1" x1="1994.08" y1="2505.16" x2="5470.98" y2="3185.66"/>
        <line class="fil0 str1" x1="4391.22" y1="2732.4" x2="4190.02" y2="2934.95"/>
        <line class="fil0 str1" x1="2962.26" y1="813.54" x2="2962.26" y2="1530.36"/>
        <line class="fil0 str1" x1="3249.97" y1="2120.93" x2="2517.99" y2="1977.67"/>
        <line class="fil0 str1" x1="1994.08" y1="2505.16" x2="2962.26" y2="1530.36"/>
        <line class="fil0 str1" x1="2927.24" y1="2445.86" x2="2195.26" y2="2302.61"/>
        <line class="fil0 str1" x1="1994.08" y1="1788.34" x2="1994.08" y2="2505.16"/>
 </g>
    <g id="dim-line">
  <line class="fil0 str2" x1="5470.98" y1="1931.21" x2="6546.72" y2="2141.75"/>
        <line class="fil0 str2" x1="5470.98" y1="2468.83" x2="6546.72" y2="2679.37"/>
        <line class="fil0 str2" x1="6546.72" y1="2146.59" x2="6546.72" y2="2674.53"/>
        <line class="fil0 str2" x1="5470.98" y1="3185.66" x2="6546.72" y2="3396.2"/>
        <line class="fil0 str2" x1="5470.98" y1="2468.83" x2="6546.72" y2="2679.37"/>
        <line class="fil0 str2" x1="6546.72" y1="3391.36" x2="6546.72" y2="2684.21"/>
        <line class="fil0 str2" x1="1994.08" y1="2505.16" x2="871.3" y2="3635.61"/>
        <line class="fil0 str2" x1="5470.98" y1="3185.66" x2="4348.2" y2="4316.1"/>
        <line class="fil0 str2" x1="876.24" y1="3636.58" x2="4343.26" y2="4315.13"/>
        <line class="fil0 str2" x1="1994.08" y1="2505.16" x2="1352.29" y2="3151.33"/>
        <line class="fil0 str2" x1="2726.06" y1="2648.42" x2="2084.27" y2="3294.59"/>
        <line class="fil0 str2" x1="1357.23" y1="3152.29" x2="2079.34" y2="3293.63"/>
        <line class="fil0 str2" x1="2195.26" y1="2302.61" x2="1273.77" y2="2122.25"/>
        <line class="fil0 str2" x1="1994.08" y1="2505.16" x2="1072.59" y2="2324.81"/>
        <line class="fil0 str2" x1="1271.6" y1="2124.44" x2="1074.77" y2="2322.62"/>
        <line class="fil0 str2" x1="4190.02" y1="2934.95" x2="3548.24" y2="3581.11"/>
        <line class="fil0 str2" x1="2726.06" y1="2648.42" x2="2084.27" y2="3294.59"/>
        <line class="fil0 str2" x1="3543.3" y1="3580.14" x2="2089.21" y2="3295.56"/>
        <line class="fil0 str2" x1="2517.99" y1="1977.67" x2="1596.5" y2="1797.32"/>
        <line class="fil0 str2" x1="2195.26" y1="2302.61" x2="1273.77" y2="2122.25"/>
        <line class="fil0 str2" x1="1594.32" y1="1799.51" x2="1275.95" y2="2120.05"/>
        <line class="fil0 str2" x1="1994.08" y1="2505.16" x2="74.84" y2="2129.53"/>
        <line class="fil0 str2" x1="2962.26" y1="1530.36" x2="1043.03" y2="1154.73"/>
        <line class="fil0 str2" x1="77.02" y1="2127.34" x2="1040.85" y2="1156.92"/>
        <line class="fil0 str2" x1="6596.13" y1="2199.81" x2="6497.31" y2="2083.69"/>
        <line class="fil0 str2" x1="6472.62" y1="2127.24" x2="6620.84" y2="2156.26"/>
        <line class="fil0 str2" x1="6546.72" y1="2238.53" x2="6546.72" y2="2044.98"/>
        <line class="fil0 str2" x1="6497.31" y1="2621.31" x2="6596.13" y2="2737.43"/>
        <line class="fil0 str2" x1="6620.84" y1="2693.88" x2="6472.62" y2="2664.87"/>
        <line class="fil0 str2" x1="6546.72" y1="2582.6" x2="6546.72" y2="2776.15"/>
        <line class="fil0 str2" x1="6497.31" y1="3338.14" x2="6596.13" y2="3454.26"/>
        <line class="fil0 str2" x1="6620.84" y1="3410.71" x2="6472.62" y2="3381.69"/>
        <line class="fil0 str2" x1="6546.72" y1="3299.43" x2="6546.72" y2="3492.98"/>
        <line class="fil0 str2" x1="6596.13" y1="2737.43" x2="6497.31" y2="2621.31"/>
        <line class="fil0 str2" x1="6472.62" y1="2664.87" x2="6620.84" y2="2693.88"/>
        <line class="fil0 str2" x1="6546.72" y1="2776.15" x2="6546.72" y2="2582.6"/>
        <line class="fil0 str2" x1="942.49" y1="3623.34" x2="800.11" y2="3647.87"/>
        <line class="fil0 str2" x1="838.63" y1="3668.51" x2="903.97" y2="3602.71"/>
        <line class="fil0 str2" x1="970.12" y1="3654.95" x2="772.48" y2="3616.27"/>
        <line class="fil0 str2" x1="4277.02" y1="4328.36" x2="4419.4" y2="4303.84"/>
        <line class="fil0 str2" x1="4380.88" y1="4283.2" x2="4315.52" y2="4349"/>
        <line class="fil0 str2" x1="4249.39" y1="4296.76" x2="4447.02" y2="4335.44"/>
        <line class="fil0 str2" x1="1423.49" y1="3139.06" x2="1281.11" y2="3163.59"/>
        <line class="fil0 str2" x1="1319.62" y1="3184.23" x2="1384.97" y2="3118.43"/>
        <line class="fil0 str2" x1="1451.11" y1="3170.67" x2="1253.48" y2="3131.98"/>
        <line class="fil0 str2" x1="2013.08" y1="3306.85" x2="2155.47" y2="3282.33"/>
        <line class="fil0 str2" x1="2116.95" y1="3261.69" x2="2051.6" y2="3327.49"/>
        <line class="fil0 str2" x1="1985.46" y1="3275.25" x2="2183.09" y2="3313.93"/>
        <line class="fil0 str2" x1="1301.4" y1="2153.85" x2="1246.15" y2="2090.64"/>
        <line class="fil0 str2" x1="1199.66" y1="2107.74" x2="1347.88" y2="2136.75"/>
        <line class="fil0 str2" x1="1230.2" y1="2166.11" x2="1317.34" y2="2078.39"/>
        <line class="fil0 str2" x1="1044.96" y1="2293.21" x2="1100.22" y2="2356.41"/>
        <line class="fil0 str2" x1="1146.7" y1="2339.31" x2="998.47" y2="2310.31"/>
        <line class="fil0 str2" x1="1116.15" y1="2280.95" x2="1029.02" y2="2368.67"/>
        <line class="fil0 str2" x1="3477.04" y1="3593.37" x2="3619.43" y2="3568.85"/>
        <line class="fil0 str2" x1="3580.91" y1="3548.22" x2="3515.56" y2="3614.01"/>
        <line class="fil0 str2" x1="3449.42" y1="3561.77" x2="3647.05" y2="3600.45"/>
        <line class="fil0 str2" x1="2155.47" y1="3282.33" x2="2013.08" y2="3306.85"/>
        <line class="fil0 str2" x1="2051.6" y1="3327.49" x2="2116.95" y2="3261.69"/>
        <line class="fil0 str2" x1="2183.09" y1="3313.93" x2="1985.46" y2="3275.25"/>
        <line class="fil0 str2" x1="1624.12" y1="1828.92" x2="1568.88" y2="1765.71"/>
        <line class="fil0 str2" x1="1522.39" y1="1782.81" x2="1670.61" y2="1811.82"/>
        <line class="fil0 str2" x1="1552.94" y1="1841.18" x2="1640.07" y2="1753.45"/>
        <line class="fil0 str2" x1="1246.15" y1="2090.64" x2="1301.4" y2="2153.85"/>
        <line class="fil0 str2" x1="1347.88" y1="2136.75" x2="1199.66" y2="2107.74"/>
        <line class="fil0 str2" x1="1317.34" y1="2078.39" x2="1230.2" y2="2166.11"/>
        <line class="fil0 str2" x1="47.22" y1="2097.92" x2="102.47" y2="2161.13"/>
        <line class="fil0 str2" x1="148.95" y1="2144.03" x2="0.73" y2="2115.02"/>
        <line class="fil0 str2" x1="118.41" y1="2085.66" x2="31.27" y2="2173.4"/>
        <line class="fil0 str2" x1="1070.65" y1="1186.33" x2="1015.4" y2="1123.12"/>
        <line class="fil0 str2" x1="968.91" y1="1140.22" x2="1117.13" y2="1169.23"/>
        <line class="fil0 str2" x1="999.46" y1="1198.6" x2="1086.6" y2="1110.86"/>
 </g>
    <g id="line-basic">
  <line class="fil0 str3" x1="6439.17" y1="956.41" x2="5470.98" y2="1931.21"/>
        <line class="fil0 str3" x1="2962.26" y1="275.91" x2="6439.17" y2="956.41"/>
        <line class="fil0 str3" x1="1994.08" y1="1250.71" x2="2962.26" y2="275.91"/>
        <line class="fil0 str3" x1="1994.08" y1="1250.71" x2="5470.98" y2="1931.21"/>
        <line class="fil0 str3" x1="5470.98" y1="2468.83" x2="5470.98" y2="1931.21"/>
        <line class="fil0 str3" x1="6439.17" y1="1494.03" x2="6439.17" y2="956.41"/>
        <line class="fil0 str3" x1="2962.26" y1="813.54" x2="2962.26" y2="275.91"/>
        <line class="fil0 str3" x1="1994.08" y1="1788.34" x2="1994.08" y2="1250.71"/>
        <line class="fil0 str3" x1="6439.17" y1="1494.03" x2="4713.93" y2="2407.45"/>
        <line class="fil0 str3" x1="2962.26" y1="813.54" x2="6439.17" y2="1494.03"/>
        <line class="fil0 str3" x1="2962.26" y1="813.54" x2="3249.97" y2="2120.93"/>
        <line class="fil0 str3" x1="5470.98" y1="2468.83" x2="4391.2" y2="2732.39"/>
        <line class="fil0 str3" x1="1994.08" y1="1788.34" x2="5470.98" y2="2468.83"/>
        <line class="fil0 str3" x1="6439.17" y1="1494.03" x2="5470.98" y2="2468.83"/>
        <line class="fil0 str3" x1="1994.08" y1="1788.34" x2="2927.24" y2="2445.86"/>
        <line class="fil0 str3" x1="2962.26" y1="813.54" x2="1994.08" y2="1788.34"/>
        <line class="fil0 str3" x1="2927.24" y1="2445.86" x2="3249.97" y2="2120.93"/>
        <line class="fil0 str3" x1="4713.93" y1="2407.45" x2="3249.97" y2="2120.93"/>
        <line class="fil0 str3" x1="4391.2" y1="2732.39" x2="4713.93" y2="2407.45"/>
        <line class="fil0 str3" x1="2927.24" y1="2445.86" x2="4391.2" y2="2732.39"/>
 </g>
</svg>
